<svg xmlns="http://www.w3.org/2000/svg" viewBox="0 0 500 500"><g id="freepik--background-complete--inject-188"><rect y="382.4" width="500" height="0.25" style="fill:#ebebeb"></rect><rect x="416.78" y="398.49" width="33.12" height="0.25" style="fill:#ebebeb"></rect><rect x="322.53" y="401.21" width="8.69" height="0.25" style="fill:#ebebeb"></rect><rect x="396.59" y="389.21" width="19.19" height="0.25" style="fill:#ebebeb"></rect><rect x="52.46" y="390.89" width="43.19" height="0.25" style="fill:#ebebeb"></rect><rect x="104.56" y="390.89" width="6.33" height="0.25" style="fill:#ebebeb"></rect><rect x="131.47" y="395.11" width="93.68" height="0.25" style="fill:#ebebeb"></rect><path d="M237,337.8H43.91a5.71,5.71,0,0,1-5.7-5.71V60.66A5.71,5.71,0,0,1,43.91,55H237a5.71,5.71,0,0,1,5.71,5.71V332.09A5.71,5.71,0,0,1,237,337.8ZM43.91,55.2a5.46,5.46,0,0,0-5.45,5.46V332.09a5.46,5.46,0,0,0,5.45,5.46H237a5.47,5.47,0,0,0,5.46-5.46V60.66A5.47,5.47,0,0,0,237,55.2Z" style="fill:#ebebeb"></path><path d="M453.31,337.8H260.21a5.72,5.72,0,0,1-5.71-5.71V60.66A5.72,5.72,0,0,1,260.21,55h193.1A5.71,5.71,0,0,1,459,60.66V332.09A5.71,5.71,0,0,1,453.31,337.8ZM260.21,55.2a5.47,5.47,0,0,0-5.46,5.46V332.09a5.47,5.47,0,0,0,5.46,5.46h193.1a5.47,5.47,0,0,0,5.46-5.46V60.66a5.47,5.47,0,0,0-5.46-5.46Z" style="fill:#ebebeb"></path><path d="M378.24,380.63c-1.4-9.59-7.72-17-14.12-16.54a8.49,8.49,0,0,0-6,3.44c-8-11.94-19-19.28-30.09-18.47a23.41,23.41,0,0,0-14.81,6.88c-7-18-18.94-30.81-30.3-30.81-6.45,0-11.67,4.13-15.11,11-9.07-12.1-19.85-19.53-30.29-19.53-16.66,0-27.59,18.88-28.53,45.42-4.19,5-19.36,12-21.28,20.35H378.46C378.39,381.82,378.33,381.24,378.24,380.63Z" style="fill:#f0f0f0"></path><path d="M240.77,364.87c-2.28.19-4.26,1.66-5.8,4-7.12-14-17.24-22.58-27.7-21.62-5.33.46-10.13,3.36-14.14,8.07,0,0,0,0,0,0-6-21.09-16.84-36-27.53-36-6.08,0-11.11,4.83-14.55,12.9-8.14-14.18-18-22.88-27.87-22.88-12.19,0-21.48,13.37-25.81,33.94-4.12-6-8.85-9.51-13.55-9.51-6.51,0-11.53,6.77-14.1,17.36a9.52,9.52,0,0,0-1.75.17c-10.44,1.76-18.25,15.46-18,31.11H253.33C251.9,372.07,246.48,364.36,240.77,364.87Z" style="fill:#f0f0f0"></path><circle cx="351.69" cy="219.38" r="43.62" transform="translate(-41 86.67) rotate(-13.28)" style="fill:#f5f5f5"></circle><path d="M431.54,128.33c-1.63-4.82-6.82-8.11-14-8.11-9.31,0-18.81,5.54-22.59,12.82a11.3,11.3,0,0,0-4.69-.93c-6.35,0-12.84,4.21-14.48,9.4a8.42,8.42,0,0,0-.33,1.43H438a12.39,12.39,0,0,0,1.7-3.39C441.5,133.88,437.91,129.19,431.54,128.33Z" style="fill:#ebebeb"></path><path d="M75.62,235c1.2-3.58,5-6,10.36-6,6.9,0,13.93,4.1,16.73,9.49a8.5,8.5,0,0,1,3.48-.69c4.71,0,9.51,3.12,10.73,7a7.12,7.12,0,0,1,.24,1.07H70.84a9.42,9.42,0,0,1-1.27-2.51C68.24,239.12,70.9,235.64,75.62,235Z" style="fill:#f5f5f5"></path><path d="M360.77,77.63A16.13,16.13,0,0,1,372,72.89c5.44,0,8.93,3.23,8.44,7.49a9.3,9.3,0,0,1,3.08-.55c3.71,0,5.94,2.46,5,5.49a4.62,4.62,0,0,1-.34.84H351.58a5.16,5.16,0,0,1,.26-2C352.89,80.87,356.73,78.12,360.77,77.63Z" style="fill:#f5f5f5"></path><path d="M161.4,86.84a10.33,10.33,0,0,1,7.13-3c3.47,0,5.69,2.07,5.38,4.78a5.76,5.76,0,0,1,2-.35c2.36,0,3.78,1.57,3.17,3.5a4.93,4.93,0,0,1-.22.53H155.55a3.31,3.31,0,0,1,.16-1.26C156.38,88.91,158.83,87.16,161.4,86.84Z" style="fill:#f5f5f5"></path><path d="M146.28,168.9a12.77,12.77,0,0,0-1.38.08c-.91-4-5-6.83-10.69-6.83a19.15,19.15,0,0,0-4.58.57c-1.47-5.12-6.82-8.64-14.29-8.64-9.11,0-18.4,5.24-22.47,12.24-5.55.9-10.74,4.73-12.19,9.31a7.93,7.93,0,0,0-.33,1.45h73.26l0-.06C155.06,172.54,151.76,168.9,146.28,168.9Z" style="fill:#ebebeb"></path><polygon points="291.25 281.4 296.55 278.11 301.88 282.46 300.87 382.4 292.23 382.4 291.25 281.4" style="fill:#e6e6e6"></polygon><polygon points="269.55 284.81 264.25 278.11 258.91 282.46 259.92 382.4 268.57 382.4 269.55 284.81" style="fill:#e6e6e6"></polygon><polygon points="237.22 281.4 231.91 278.11 226.58 282.46 227.59 382.4 236.24 382.4 237.22 281.4" style="fill:#e6e6e6"></polygon><polygon points="194.25 284.81 199.55 278.11 204.88 282.46 203.88 382.4 195.23 382.4 194.25 284.81" style="fill:#e6e6e6"></polygon><polygon points="420.57 281.4 425.88 278.11 431.21 282.46 430.2 382.4 421.56 382.4 420.57 281.4" style="fill:#e6e6e6"></polygon><polygon points="398.88 284.81 393.57 278.11 388.24 282.46 389.25 382.4 397.9 382.4 398.88 284.81" style="fill:#e6e6e6"></polygon><polygon points="366.54 281.4 361.24 278.11 355.91 282.46 356.92 382.4 365.56 382.4 366.54 281.4" style="fill:#e6e6e6"></polygon><polygon points="323.58 284.81 328.88 278.11 334.21 282.46 333.2 382.4 324.56 382.4 323.58 284.81" style="fill:#e6e6e6"></polygon><polygon points="190.8 307.82 440.77 307.94 440.54 304.67 190.81 304.11 190.8 307.82" style="fill:#e6e6e6"></polygon></g><g id="freepik--Shadow--inject-188"><ellipse id="freepik--path--inject-188" cx="250" cy="416.24" rx="193.89" ry="11.32" style="fill:#f5f5f5"></ellipse></g><g id="freepik--Signpost--inject-188"><rect x="329.62" y="264.11" width="1" height="17.89" style="fill:#1E88E5"></rect><rect x="329.62" y="252.33" width="1" height="6" style="fill:#1E88E5"></rect><path d="M323.78,88.35h0a3.33,3.33,0,0,0-3.33,3.33V412.85a1.63,1.63,0,0,0,1.63,1.62h3.41a1.63,1.63,0,0,0,1.63-1.62V91.68A3.34,3.34,0,0,0,323.78,88.35Z" style="fill:#1E88E5"></path><polygon points="320.45 129.23 320.45 133.48 323.78 129.23 320.45 129.23" style="opacity:0.2"></polygon><polygon points="327.12 163.88 327.12 168.13 323.78 163.88 327.12 163.88" style="opacity:0.2"></polygon><polygon points="327.12 233.16 327.12 237.41 323.78 233.16 327.12 233.16" style="opacity:0.2"></polygon><polygon points="320.45 198.52 320.45 202.77 323.78 198.52 320.45 198.52" style="opacity:0.2"></polygon><polygon points="323.78 129.23 253.53 129.23 246.44 115.46 253.53 101.68 323.78 101.68 323.78 129.23" style="fill:#1E88E5"></polygon><polygon points="254.75 127.23 248.69 115.46 254.75 103.68 321.78 103.68 321.78 127.23 254.75 127.23" style="fill:#fff"></polygon><polygon points="323.78 163.88 358.85 163.88 365.93 150.1 358.85 136.32 323.78 136.32 323.78 163.88" style="fill:#1E88E5"></polygon><polygon points="357.63 161.88 363.69 150.1 357.63 138.32 325.78 138.32 325.78 161.88 357.63 161.88" style="fill:#fff"></polygon><polygon points="323.78 198.52 273.19 198.52 266.11 184.74 273.19 170.96 323.78 170.96 323.78 198.52" style="fill:#1E88E5"></polygon><polygon points="274.42 196.52 268.36 184.74 274.42 172.96 321.78 172.96 321.78 196.52 274.42 196.52" style="fill:#fff"></polygon><polygon points="323.78 233.16 372.51 233.16 379.6 219.38 372.51 205.6 323.78 205.6 323.78 233.16" style="fill:#1E88E5"></polygon><polygon points="371.29 231.16 377.35 219.38 371.29 207.6 325.78 207.6 325.78 231.16 371.29 231.16" style="fill:#fff"></polygon></g><g id="freepik--Character--inject-188"><polygon points="220.71 403.1 227.81 400.06 222.68 382.82 215.58 385.85 220.71 403.1" style="fill:#ffc3bd"></polygon><polygon points="162.16 406.59 169.88 406.59 170.28 388.72 162.56 388.72 162.16 406.59" style="fill:#ffc3bd"></polygon><path d="M170.93,405.7h-9.41a.68.68,0,0,0-.66.53l-1.52,6.86a1.13,1.13,0,0,0,1.13,1.37c3,0,5.24-.23,9.05-.23,2.34,0,9.42.24,12.66.24s3.66-3.2,2.34-3.49c-6-1.3-10.43-3.1-12.34-4.81A1.85,1.85,0,0,0,170.93,405.7Z" style="fill:#263238"></path><path d="M227.64,399l-7.62,3.6a.69.69,0,0,0-.37.76l1.56,6.86a1.12,1.12,0,0,0,1.59.76c2.73-1.34,6.62-3.38,10.08-5,4-1.91,4.16-1.91,8.9-4.15,2.86-1.35,2.29-4.62,1-4.32-6,1.39-7.07,1.94-13.16,1.26A3.66,3.66,0,0,0,227.64,399Z" style="fill:#263238"></path><path d="M184.81,161.75l3.17.79c1.1.26,2.19.49,3.28.7a61.25,61.25,0,0,0,6.35.93,22.61,22.61,0,0,0,2.81.06,8.84,8.84,0,0,0,1.83-.24c.13,0,.12,0,0,.11a1.82,1.82,0,0,0-.39.72c-.07.28,0,.41,0,.35a1.46,1.46,0,0,0,0-.57,17.06,17.06,0,0,0-2.28-4.89,63.17,63.17,0,0,0-3.87-5.41c-2.84-3.57-6-7.15-9.17-10.57l3.62-4.53a81.46,81.46,0,0,1,12,9.07,54.06,54.06,0,0,1,5.39,5.67,24.61,24.61,0,0,1,4.5,7.78,12.78,12.78,0,0,1,.59,3,10,10,0,0,1-.5,3.9,9.26,9.26,0,0,1-2.41,3.68,11,11,0,0,1-3.06,2,17.53,17.53,0,0,1-5.2,1.33,31.7,31.7,0,0,1-4.41.14,52.88,52.88,0,0,1-8-.93c-1.28-.24-2.54-.52-3.79-.82s-2.44-.62-3.81-1Z" style="fill:#ffc3bd"></path><path d="M174.1,165c4-6.18,25.65-1.63,25.65-1.63L201,182.07a176.26,176.26,0,0,0-17.69-1.71C177.2,180.09,169.08,172.68,174.1,165Z" style="fill:#263238"></path><path d="M187.73,144.48l-7.25-3.88,7-5.52a8.27,8.27,0,0,1,3.76,5.62Z" style="fill:#ffc3bd"></path><polygon points="176.06 136.56 183.13 132.18 187.52 135.08 180.48 140.6 176.06 136.56" style="fill:#ffc3bd"></polygon><polygon points="222.68 382.83 225.32 391.71 218.22 394.75 215.57 385.86 222.68 382.83" style="opacity:0.2"></polygon><polygon points="162.56 388.72 170.28 388.72 170.07 397.94 162.35 397.94 162.56 388.72" style="opacity:0.2"></polygon><path d="M156,181.89l-9.41,13.57a5.52,5.52,0,0,0-1,2.93l-.74,18a5.56,5.56,0,0,0,1.22,3.7l4.09,5.08a5.53,5.53,0,0,0,4.62,2l12.37-.68a5.53,5.53,0,0,0,5.23-5.54l-.11-36.15a5.53,5.53,0,0,0-5.68-5.52l-6.22.17A5.54,5.54,0,0,0,156,181.89Z" style="fill:#1E88E5"></path><path d="M156,181.89l-9.41,13.57a5.52,5.52,0,0,0-1,2.93l-.74,18a5.56,5.56,0,0,0,1.22,3.7l4.09,5.08a5.53,5.53,0,0,0,4.62,2l12.37-.68a5.53,5.53,0,0,0,5.23-5.54l-.11-36.15a5.53,5.53,0,0,0-5.68-5.52l-6.22.17A5.54,5.54,0,0,0,156,181.89Z" style="opacity:0.30000000000000004"></path><rect x="148.6" y="158.52" width="38.16" height="18.6" rx="5.46" transform="translate(-4.52 4.64) rotate(-1.57)" style="fill:#1E88E5"></rect><rect x="148.6" y="158.52" width="38.16" height="18.6" rx="5.46" transform="translate(-4.52 4.64) rotate(-1.57)" style="opacity:0.30000000000000004"></rect><path d="M147.54,163.91a175,175,0,0,1,4.39,25.49c.61,6,.93,11.7,1.1,16.89.39,12.14-.06,21.38.24,24.52l41.23-2c1.22-60.66-3.76-66.61-3.76-66.61a81.18,81.18,0,0,0-9.83-1.42q-1-.09-2.13-.12a151.07,151.07,0,0,0-17.53.86c-1.1.11-2.22.25-3.31.4C152.41,162.67,147.54,163.91,147.54,163.91Z" style="fill:#263238"></path><path d="M188.86,182.42A51.61,51.61,0,0,0,159,184.67l-.84-2.89a54.4,54.4,0,0,1,31.47-2.37C189.39,180.41,189.12,181.42,188.86,182.42Z" style="fill:#1E88E5"></path><path d="M157.71,175.23A32.52,32.52,0,0,1,152.25,193c-.09-1.18-.2-2.37-.32-3.57-.46-4.5-1.08-9.17-1.92-13.89Z" style="opacity:0.2"></path><path d="M182.06,160.85l-1.15-.1c-.7-.06-1.41-.1-2.12-.14a153.19,153.19,0,0,0-17.53.87c-1.11.11-2.22.25-3.31.4h-.07l.79,1.23c1.22,1.93,5.12,6.48,15.09,7.38l1,.08.83-.47c2.14-1.22,5.61-4.17,6.39-7.31A5.15,5.15,0,0,0,182.06,160.85Z" style="fill:#fff"></path><path d="M155.61,129.87c-3.89-1.94-8.32,3.65-7,7.14a5.29,5.29,0,0,1,5.26,2.07s-2.59,3.18-1,6.64c3.16-2,6.39.76,6.39.76a5,5,0,0,0,1.19,5.51c.84-2.26,4-.22,5.28-2,2.09-2.91-.32-6-.32-6l-.87-1.44C163.9,135.65,161.66,132.88,155.61,129.87Z" style="fill:#263238"></path><path d="M162,141.66c1.39,5.59,3,15.86-.75,19.82,1.56,2.47,5.57,5.31,12.77,6,2.56-1.45,5.93-5,4.75-6.82-6.36-1.19-6.43-5.86-5.55-10.3Z" style="fill:#ffc3bd"></path><path d="M181.78,161.05c.45,3.75,3.72,28.68,12.31,39.34a.51.51,0,0,0,.9-.31c0-2.19,0-4.26,0-4.63a.45.45,0,0,0,0-.12c-.3-1.09-4.68-17.63-5.27-33.52a.5.5,0,0,0-.25-.42,15.13,15.13,0,0,0-7.26-.89A.49.49,0,0,0,181.78,161.05Z" style="fill:#1E88E5"></path><path d="M166.59,145.19l6.63,5.12a17.94,17.94,0,0,0-.38,3.14c-2.42-.23-5.85-2.7-6.23-5.21A8.33,8.33,0,0,1,166.59,145.19Z" style="opacity:0.2"></path><path d="M175.81,132.43c2.07.21,5.1-6.7,1.65-11.64-3.19-4.55-9.48.17-10.27,1S168.38,131.66,175.81,132.43Z" style="fill:#263238"></path><path d="M158.4,134.16c1.92,7.41,2.67,11.85,7.21,15,6.83,4.69,15.43-.56,15.76-8.4.29-7.05-2.9-18-10.83-19.55A10.45,10.45,0,0,0,158.4,134.16Z" style="fill:#ffc3bd"></path><path d="M161.68,140.06c2.08.21,2.79-9.25,1.65-11.64s-9.67,0-10.26,1C149.77,135.08,154.26,139.29,161.68,140.06Z" style="fill:#263238"></path><path d="M178.42,117c-.3-2.86-3.67-4.39-7.27-4-.17,2.11-3.64,3.7-3.64,3.7a9.05,9.05,0,0,0-7.57-1.76c.22,3.2-2.78,5.66-2.78,5.66s-3.12-1.33-6.31,1.65c2.58,1.22-1.63,3.91.72,6.9,2.66,3.39,7.38,1.47,7.38,1.47l2-1.06C170.73,128.42,179.23,124.46,178.42,117Z" style="fill:#263238"></path><path d="M177.69,141.29h0a15.82,15.82,0,0,1-5,2.4.18.18,0,0,1-.23-.16.26.26,0,0,1,.2-.26,15.39,15.39,0,0,0,4.77-2.3.22.22,0,0,1,.3,0A.19.19,0,0,1,177.69,141.29Z" style="fill:#263238"></path><path d="M156.62,142.27a7.3,7.3,0,0,0,5.07,2.28c2.55.06,3.2-2.37,2-4.45-1.11-1.88-3.78-4.16-6.09-3.23S155,140.53,156.62,142.27Z" style="fill:#ffc3bd"></path><path d="M210.78,312.74c-4.06-23.2-16.28-84-16.28-84l-27.1,1.34S186,298.24,191.34,318s24,76.27,24,76.27l11.81-5.58S215,336.87,210.78,312.74Z" style="fill:#1E88E5"></path><path d="M178.39,253l-3.81,3.46c3.27,12,7.15,26.26,10.49,38.52C186,281.14,184.3,260.34,178.39,253Z" style="opacity:0.2"></path><path d="M183.13,229.33s-5.43,64.58-6.11,87.19c-.75,24.75-3.27,79.63-3.27,79.63H159.61S157.44,346,157,321.66c-.54-27.5-3.69-90.85-3.69-90.85Z" style="fill:#1E88E5"></path><polygon points="174.31 396.46 158.79 396.46 158.09 391.49 175.57 391.16 174.31 396.46" style="fill:#263238"></polygon><polygon points="227.99 388.65 214.66 394.96 211.8 390.48 227 383.27 227.99 388.65" style="fill:#263238"></polygon><path d="M170.19,134c.12.61.54,1,.94,1s.63-.63.51-1.24-.54-1-.94-1S170.07,133.43,170.19,134Z" style="fill:#263238"></path><path d="M177.1,132.69c.12.61.54,1,.94,1s.62-.64.5-1.25-.54-1-.94-1S177,132.08,177.1,132.69Z" style="fill:#263238"></path><path d="M175,133.42a22.28,22.28,0,0,0,3.94,4.66c-.89,1.22-2.93,1-2.93,1Z" style="fill:#ed847e"></path><path d="M171.18,130.49a.36.36,0,0,0-.36.11,2.89,2.89,0,0,1-2.43,1,.37.37,0,0,0-.41.31.36.36,0,0,0,.31.42,3.64,3.64,0,0,0,3.08-1.29.35.35,0,0,0,0-.51A.28.28,0,0,0,171.18,130.49Z" style="fill:#263238"></path><path d="M179.68,127.11a.36.36,0,0,0,.18-.12.37.37,0,0,0-.06-.52,3.59,3.59,0,0,0-3.26-.7.37.37,0,0,0-.23.46.37.37,0,0,0,.46.23h0a2.93,2.93,0,0,1,2.58.59A.39.39,0,0,0,179.68,127.11Z" style="fill:#263238"></path><path d="M173.48,407.05a2.31,2.31,0,0,0,1.49-.4,1.09,1.09,0,0,0,.38-1,.57.57,0,0,0-.32-.52c-.85-.44-3.34,1.09-3.62,1.27a.17.17,0,0,0-.08.18.18.18,0,0,0,.13.15A9.11,9.11,0,0,0,173.48,407.05Zm1.15-1.6a.55.55,0,0,1,.24,0,.24.24,0,0,1,.11.22.72.72,0,0,1-.25.66,3.66,3.66,0,0,1-2.74.14A7.47,7.47,0,0,1,174.63,405.45Z" style="fill:#1E88E5"></path><path d="M171.51,406.77a.11.11,0,0,0,.08,0c.8-.43,2.35-2.12,2.18-3a.59.59,0,0,0-.58-.48,1,1,0,0,0-.78.23c-.89.74-1.08,3-1.09,3.06a.18.18,0,0,0,.09.16A.17.17,0,0,0,171.51,406.77Zm1.55-3.12h.09c.23,0,.26.14.26.19.1.5-.88,1.78-1.68,2.38a4.41,4.41,0,0,1,.91-2.41A.65.65,0,0,1,173.06,403.65Z" style="fill:#1E88E5"></path><path d="M228.78,399.68h0c1.23-.31,3.36-1,3.8-2a1,1,0,0,0-.07-1,.57.57,0,0,0-.48-.31c-1.06-.06-3.2,2.67-3.44,3a.18.18,0,0,0,0,.21A.17.17,0,0,0,228.78,399.68Zm3.2-2.92H232a.22.22,0,0,1,.18.13.66.66,0,0,1,.06.62c-.25.59-1.37,1.2-3,1.67C230.12,398.12,231.38,396.8,232,396.76Z" style="fill:#1E88E5"></path><path d="M228.78,399.68a.16.16,0,0,0,.12-.06c.67-.78,1.62-3.08,1.12-3.81-.12-.17-.36-.33-.83-.17a1.37,1.37,0,0,0-.79.72c-.54,1.15.16,3.12.19,3.2a.19.19,0,0,0,.14.12Zm.74-3.74a.2.2,0,0,1,.2.08c.3.44-.27,2.16-.89,3.08a4.24,4.24,0,0,1-.09-2.58.93.93,0,0,1,.57-.53A.63.63,0,0,1,229.52,395.94Z" style="fill:#1E88E5"></path><path d="M155.62,175.39l-2.23,3.06c-.76,1.05-1.5,2.12-2.23,3.19-1.47,2.14-2.88,4.31-4.26,6.48s-2.63,4.4-3.84,6.62a73.57,73.57,0,0,0-3.14,6.71s0,.1,0,.09v0a0,0,0,0,0,0,0s0-.08,0,0,0,0,0,.18a.88.88,0,0,1,0,.16c0,.06,0,.16,0,.24v.25l.05.3a14.18,14.18,0,0,0,.85,2.92,51.19,51.19,0,0,0,3.29,6.59c1.27,2.22,2.68,4.43,4.13,6.63s3,4.41,4.45,6.55l-4.25,3.94A91.14,91.14,0,0,1,136.75,217a50.74,50.74,0,0,1-4.89-7.4,25.15,25.15,0,0,1-1.91-4.7l-.19-.68-.14-.75c0-.26-.09-.5-.12-.77l-.06-.85a10.65,10.65,0,0,1,.05-1.85,7,7,0,0,1,.18-1l.12-.52a3.67,3.67,0,0,1,.12-.42,77.64,77.64,0,0,1,7-15.87c1.4-2.47,2.9-4.86,4.47-7.19.79-1.17,1.6-2.32,2.43-3.46s1.65-2.23,2.62-3.43Z" style="fill:#ffc3bd"></path><path d="M147.54,163.91c-7.27,1.32-14,18.88-14,18.88l14.85,12.6s5.13-8.89,9.26-17.49C162.18,168.54,156.33,162.32,147.54,163.91Z" style="fill:#263238"></path><path d="M149.6,224.27l7.77-1-3,9.4s-6.8-.64-6.86-4.29Z" style="fill:#ffc3bd"></path><polygon points="162.92 226.59 160.1 234.24 154.4 232.7 157.37 223.31 162.92 226.59" style="fill:#ffc3bd"></polygon><path d="M152.26,163.16c.84,4.17,4.46,24.17.21,40.3a.19.19,0,0,0,0,.08,19.89,19.89,0,0,0,.2,2.88.39.39,0,0,0,.63.22c2.09-1.73,9.79-9.15,9.84-25.06.05-12.67-1.91-18.24-2.65-19.9a.84.84,0,0,0-.9-.46l-6.63,1A.8.8,0,0,0,152.26,163.16Z" style="fill:#1E88E5"></path></g></svg>
